<svg xmlns="http://www.w3.org/2000/svg" viewBox="0 0 23.0251 3.8921" width="23.0251mm" height="3.8921mm">
<g fill="#000">
<path d="M0.2728 1.0912L1.0912 1.0912L1.0912 0.5456L0.2728 0.5456ZM13.6404 1.9097L13.3676 1.9097L13.3676 1.6369L13.6404 1.6369L13.6404 1.3640L13.9133 1.3640L13.9133 0.5456L14.1861 0.5456L14.1861 1.3640L13.9133 1.3640L13.9133 1.6369L13.6404 1.6369ZM13.3676 1.6369L13.0948 1.6369L13.0948 1.3640L12.8220 1.3640L12.8220 0.5456L13.0948 0.5456L13.0948 1.3640L13.3676 1.3640ZM0.2728 1.3640L0.2728 1.9097L0.0000 1.9097L0.0000 0.2728L1.0912 0.2728L1.0912 0.5456L1.3640 0.5456L1.3640 1.0912L1.0912 1.0912L1.0912 1.3640ZM12.8220 1.9097L13.3676 1.9097L13.3676 2.1825L12.8220 2.1825Z"/>
<path d="M2.6462 1.6369L3.1919 1.6369L3.1919 1.9097L1.8278 1.9097L1.8278 1.6369L2.3734 1.6369L2.3734 0.8184L1.8278 0.8184L1.8278 0.5456L2.6462 0.5456ZM2.6462 0.2728L2.3734 0.2728L2.3734 0.0000L2.6462 0.0000Z"/>
<path d="M21.2518 1.9097L20.9790 1.9097L20.9790 1.6369L20.1606 1.6369L20.1606 1.3640L20.9790 1.3640L20.9790 0.8184L20.1606 0.8184L20.1606 0.5456L21.2518 0.5456ZM20.1606 0.8184L20.1606 1.3640L19.8878 1.3640L19.8878 0.8184ZM3.7920 1.9097L3.7920 1.6369L3.5192 1.6369L3.5192 0.8184L3.7920 0.8184L3.7920 1.6369L4.6105 1.6369L4.6105 1.3640L4.8833 1.3640L4.8833 1.6369L4.6105 1.6369L4.6105 1.9097ZM14.7044 0.2728L14.9772 0.2728L14.9772 1.0912L15.2500 1.0912L15.2500 0.8184L15.5228 0.8184L15.5228 0.5456L15.7956 0.5456L15.7956 0.2728L16.0684 0.2728L16.0684 0.5456L15.7956 0.5456L15.7956 0.8184L15.5228 0.8184L15.5228 1.3640L15.7956 1.3640L15.7956 1.6369L16.0684 1.6369L16.0684 1.9097L15.7956 1.9097L15.7956 1.6369L15.5228 1.6369L15.5228 1.3640L14.9772 1.3640L14.9772 1.9097L14.7044 1.9097ZM4.8833 0.5456L4.8833 0.8184L3.7920 0.8184L3.7920 0.5456ZM20.1606 2.1825L20.1606 1.9097L20.9790 1.9097L20.9790 2.1825Z"/>
<path d="M5.6199 1.6369L6.4383 1.6369L6.4383 0.8184L6.7111 0.8184L6.7111 1.6369L6.4383 1.6369L6.4383 1.9097L5.6199 1.9097L5.6199 1.6369L5.3471 1.6369L5.3471 0.8184L5.6199 0.8184ZM5.6199 0.8184L5.6199 0.5456L6.4383 0.5456L6.4383 0.8184Z"/>
<path d="M7.5022 1.0912L8.3207 1.0912L8.3207 1.3640L8.5935 1.3640L8.5935 1.9097L8.3207 1.9097L8.3207 1.3640L7.5022 1.3640L7.5022 1.9097L7.2294 1.9097L7.2294 0.2728L8.3207 0.2728L8.3207 0.5456L8.5935 0.5456L8.5935 1.0912L8.3207 1.0912L8.3207 0.5456L7.5022 0.5456Z"/>
<path d="M22.4795 0.0000L22.4795 0.2728L22.2066 0.2728L22.2066 0.0000ZM16.7505 1.3640L16.7505 1.0912L17.5689 1.0912L17.5689 0.8184L17.8417 0.8184L17.8417 1.9097L17.5689 1.9097L17.5689 1.3640ZM16.7505 1.3640L16.7505 1.6369L17.2961 1.6369L17.2961 1.9097L16.7505 1.9097L16.7505 1.6369L16.4777 1.6369L16.4777 1.3640ZM16.7505 0.8184L16.7505 0.5456L17.5689 0.5456L17.5689 0.8184ZM22.4795 1.6369L23.0251 1.6369L23.0251 1.9097L21.6610 1.9097L21.6610 1.6369L22.2066 1.6369L22.2066 0.8184L21.6610 0.8184L21.6610 0.5456L22.4795 0.5456ZM9.3846 1.9097L9.3846 1.6369L9.9302 1.6369L9.9302 1.3640L10.2031 1.3640L10.2031 0.5456L10.4759 0.5456L10.4759 1.9097L10.2031 1.9097L10.2031 1.6369L9.9302 1.6369L9.9302 1.9097ZM9.1118 1.6369L9.1118 0.5456L9.3846 0.5456L9.3846 1.6369Z"/>
<path d="M10.9942 1.9097L10.9942 0.2728L11.2670 0.2728L11.2670 0.8184L11.5398 0.8184L11.5398 1.0912L11.2670 1.0912L11.2670 1.6369L12.0854 1.6369L12.0854 0.8184L11.5398 0.8184L11.5398 0.5456L12.0854 0.5456L12.0854 0.8184L12.3582 0.8184L12.3582 1.6369L12.0854 1.6369L12.0854 1.9097Z"/>
<path d="M19.1239 1.6369L19.6695 1.6369L19.6695 1.9097L18.3055 1.9097L18.3055 1.6369L18.8511 1.6369L18.8511 0.8184L18.3055 0.8184L18.3055 0.5456L19.1239 0.5456ZM19.1239 0.2728L18.8511 0.2728L18.8511 0.0000L19.1239 0.0000Z"/>
<path d="M6.1764 2.7645L6.1764 3.4410L5.7254 3.4410L5.7254 3.6666L6.1764 3.6666L6.1764 3.8921L5.4998 3.8921L5.4998 3.2155L5.9509 3.2155L5.9509 2.9900L5.4998 2.9900L5.4998 2.7645ZM6.6274 2.7645L7.3040 2.7645L7.3040 2.9900L6.8530 2.9900L6.8530 3.2155L7.3040 3.2155L7.3040 3.8921L6.6274 3.8921ZM3.9212 2.7645L3.9212 3.4410L3.4701 3.4410L3.4701 3.6666L3.9212 3.6666L3.9212 3.8921L3.2446 3.8921L3.2446 3.2155L3.6957 3.2155L3.6957 2.9900L3.2446 2.9900L3.2446 2.7645ZM5.0488 3.8921L4.3722 3.8921L4.3722 2.7645L5.0488 2.7645ZM6.8530 3.4410L6.8530 3.6666L7.0785 3.6666L7.0785 3.4410ZM4.8233 2.9900L4.5977 2.9900L4.5977 3.6666L4.8233 3.6666Z"/>
<path d="M12.9057 3.0191L12.9057 3.1282L13.0148 3.1282L13.0148 3.2373L12.5783 3.2373L12.5783 3.3465L12.9057 3.3465L12.9057 3.4556L13.0148 3.4556L13.0148 3.7830L12.9057 3.7830L12.9057 3.8921L12.4692 3.8921L12.4692 3.7830L12.3601 3.7830L12.3601 3.6738L12.7966 3.6738L12.7966 3.5647L12.4692 3.5647L12.4692 3.4556L12.3601 3.4556L12.3601 3.1282L12.4692 3.1282L12.4692 3.0191ZM11.4871 3.5647L11.4871 3.4556L11.3780 3.4556L11.3780 3.1282L11.4871 3.1282L11.4871 3.0191L11.9236 3.0191L11.9236 3.1282L12.0327 3.1282L12.0327 3.2373L11.5962 3.2373L11.5962 3.3465L11.9236 3.3465L11.9236 3.4556L12.0327 3.4556L12.0327 3.7830L11.9236 3.7830L11.9236 3.8921L11.4871 3.8921L11.4871 3.7830L11.3780 3.7830L11.3780 3.6738L11.8144 3.6738L11.8144 3.5647ZM15.3064 3.2373L15.0882 3.2373L15.0882 3.8921L14.8699 3.8921L14.8699 3.2373L14.6517 3.2373L14.6517 3.8921L14.4334 3.8921L14.4334 3.0191L14.6517 3.0191L14.6517 3.1282L14.7608 3.1282L14.7608 3.0191L14.9790 3.0191L14.9790 3.1282L15.1973 3.1282L15.1973 3.0191L15.4155 3.0191L15.4155 3.1282L15.5246 3.1282L15.5246 3.8921L15.3064 3.8921ZM16.9433 3.8921L16.9433 2.8008L17.1615 2.8008L17.1615 3.8921ZM13.9969 3.1282L14.1060 3.1282L14.1060 3.5647L13.5604 3.5647L13.5604 3.6738L14.1060 3.6738L14.1060 3.7830L13.9969 3.7830L13.9969 3.8921L13.4513 3.8921L13.4513 3.7830L13.3422 3.7830L13.3422 3.1282L13.4513 3.1282L13.4513 3.0191L13.9969 3.0191ZM13.5604 3.2373L13.5604 3.3465L13.8878 3.3465L13.8878 3.2373ZM19.7805 3.2373L19.7805 3.4556L19.1257 3.4556L19.1257 3.2373ZM16.0703 3.2373L16.0703 3.6738L16.3976 3.6738L16.3976 3.2373ZM10.6141 3.2373L10.5050 3.2373L10.5050 3.4556L10.8323 3.4556L10.8323 3.2373L10.7232 3.2373L10.7232 3.1282L10.6141 3.1282ZM16.5068 3.0191L16.5068 3.1282L16.6159 3.1282L16.6159 3.7830L16.5068 3.7830L16.5068 3.8921L15.8520 3.8921L15.8520 2.8008L16.0703 2.8008L16.0703 3.1282L16.1794 3.1282L16.1794 3.0191ZM10.2867 3.8921L10.2867 3.1282L10.3958 3.1282L10.3958 3.0191L10.5050 3.0191L10.5050 2.9100L10.6141 2.9100L10.6141 2.8008L10.7232 2.8008L10.7232 2.9100L10.8323 2.9100L10.8323 3.0191L10.9415 3.0191L10.9415 3.1282L11.0506 3.1282L11.0506 3.8921L10.8323 3.8921L10.8323 3.6738L10.5050 3.6738L10.5050 3.8921ZM17.5980 3.8921L17.5980 3.7830L17.4889 3.7830L17.4889 3.1282L17.5980 3.1282L17.5980 3.0191L18.1436 3.0191L18.1436 3.1282L18.2527 3.1282L18.2527 3.5647L17.7071 3.5647L17.7071 3.6738L18.2527 3.6738L18.2527 3.7830L18.1436 3.7830L18.1436 3.8921ZM9.4137 3.2373L9.4137 3.4556L8.7590 3.4556L8.7590 3.2373ZM18.0345 3.2373L17.7071 3.2373L17.7071 3.3465L18.0345 3.3465Z"/>
</g>
</svg>
